<svg width="240" height="79" viewBox="0 0 240 79" fill="none" xmlns="http://www.w3.org/2000/svg">
<path d="M129.676 65.0932C126.945 62.7435 124.31 60.2349 121.77 57.5676C119.293 54.8368 116.975 52.0425 114.816 49.1847C112.72 46.3269 110.783 43.4373 109.005 40.516C107.29 37.5311 105.829 34.6098 104.623 31.752C102.464 34.1018 100.304 36.4833 98.145 38.8965C96.0493 41.2463 94.1758 43.6278 92.5246 46.0411C90.8735 48.3909 89.5398 50.7724 88.5237 53.1856C87.4441 55.5354 86.9043 57.8852 86.9043 60.2349C86.9043 63.0292 87.3806 65.4425 88.3332 67.4747C89.2223 69.4435 90.4289 71.0629 91.9531 72.333C93.4772 73.6032 95.2237 74.524 97.1924 75.0956C99.1611 75.6672 101.193 75.9529 103.289 75.9529C107.481 75.9529 111.926 74.9686 116.626 72.9999C121.325 71.0311 125.675 68.3956 129.676 65.0932ZM117.864 8.60364C117.864 6.38089 117.356 4.79321 116.34 3.84061C115.387 2.8245 114.339 2.31644 113.196 2.31644C112.244 2.31644 111.227 2.63397 110.148 3.26905C109.132 3.90412 108.179 4.82497 107.29 6.0316C106.464 7.17473 105.766 8.57189 105.194 10.2231C104.623 11.8743 104.337 13.6842 104.337 15.6529C104.337 19.2728 105.004 23.115 106.337 27.1795C107.925 25.5283 109.418 23.9089 110.815 22.3212C112.212 20.7335 113.418 19.1776 114.435 17.6534C115.514 16.0657 116.34 14.5416 116.911 13.0809C117.546 11.5567 117.864 10.0643 117.864 8.60364ZM154.539 78.1439C154.539 78.3345 154.412 78.525 154.158 78.7155C153.904 78.906 153.523 79.0013 153.015 79.0013C149.205 77.7947 145.458 76.1117 141.774 73.9525C138.091 71.7297 134.503 69.1577 131.01 66.2364C128.597 68.0781 126.088 69.761 123.484 71.2852C120.881 72.8093 118.213 74.1112 115.482 75.1909C112.815 76.2705 110.116 77.0961 107.385 77.6676C104.718 78.2392 102.146 78.525 99.6692 78.525C97.2559 78.525 94.9697 78.1757 92.8104 77.4771C90.6512 76.842 88.7777 75.8577 87.19 74.524C85.6024 73.1269 84.364 71.4122 83.4749 69.38C82.5223 67.3477 82.046 64.9662 82.046 62.2354C82.046 59.3141 82.7128 56.4563 84.0464 53.6619C85.3801 50.8041 87.0948 48.0098 89.1905 45.279C91.2862 42.5482 93.6043 39.8809 96.1445 37.2771C98.7483 34.6733 101.289 32.133 103.765 29.6563C101.924 24.7027 101.003 20.2254 101.003 16.2245C101.003 13.8747 101.416 11.7155 102.241 9.74677C103.13 7.77805 104.242 6.09511 105.575 4.69795C106.909 3.3008 108.37 2.22118 109.957 1.45909C111.609 0.6335 113.164 0.220703 114.625 0.220703C116.34 0.220703 117.896 0.792267 119.293 1.9354C120.69 3.01501 121.389 4.82497 121.389 7.36525C121.389 8.95293 120.976 10.6041 120.15 12.3188C119.388 14.0335 118.34 15.8117 117.007 17.6534C115.736 19.4316 114.212 21.3051 112.434 23.2738C110.719 25.179 108.909 27.1477 107.004 29.1799C109.1 34.9591 112.212 40.8335 116.34 46.8032C120.531 52.7093 125.612 58.2345 131.582 63.3785C134.82 60.4572 137.424 57.2501 139.393 53.7572C141.362 50.2643 142.346 46.6127 142.346 42.8022C142.346 41.5321 142.155 40.2619 141.774 38.9918C141.457 37.6582 140.79 36.261 139.774 34.8003C139.774 34.6733 139.964 34.5463 140.346 34.4193C140.727 34.2288 141.076 34.1335 141.393 34.1335C142.282 34.1335 142.981 34.451 143.489 35.0861C144.061 35.6577 144.473 36.3563 144.727 37.1818C145.045 38.0074 145.236 38.8648 145.299 39.7539C145.426 40.5795 145.49 41.2463 145.49 41.7544C145.49 45.9458 144.315 50.0103 141.965 53.9477C139.679 57.8217 136.694 61.3781 133.01 64.6169C139.171 69.888 146.125 74.1747 153.873 77.4771C154.317 77.7311 154.539 77.9534 154.539 78.1439Z" fill="#D0D0D0"/>
<path d="M18.24 44.1282C18.24 42.1442 18.112 40.4962 17.856 39.1842C17.632 37.8722 17.312 37.2162 16.896 37.2162C16.64 37.2162 16.4 37.4082 16.176 37.7922C15.952 38.1442 15.76 38.6562 15.6 39.3282C15.472 39.9682 15.36 40.7362 15.264 41.6322C15.2 42.4962 15.168 43.4402 15.168 44.4642C15.168 46.2882 15.296 48.2562 15.552 50.3682C15.808 52.4482 16.256 54.4642 16.896 56.4162C17.344 54.3682 17.68 52.2722 17.904 50.1282C18.128 47.9522 18.24 45.9522 18.24 44.1282ZM38.352 22.3362C38.352 22.4962 38.288 22.6242 38.16 22.7202C38.032 22.8162 37.872 22.9282 37.68 23.0562C36.72 23.6322 35.936 24.4322 35.328 25.4562C34.72 26.4802 34.224 27.6002 33.84 28.8162C33.488 30.0322 33.248 31.2802 33.12 32.5602C32.992 33.8082 32.928 34.9602 32.928 36.0162C32.928 36.7522 32.96 37.6642 33.024 38.7522C33.12 39.8082 33.216 40.9762 33.312 42.2562C33.44 43.5362 33.536 44.8962 33.6 46.3362C33.696 47.7442 33.744 49.1842 33.744 50.6562C33.744 52.7362 33.616 54.7522 33.36 56.7042C33.136 58.6562 32.672 60.4002 31.968 61.9362C31.296 63.4722 30.352 64.7042 29.136 65.6322C27.92 66.5602 26.336 67.0242 24.384 67.0242C23.488 67.0242 22.64 66.8482 21.84 66.4962C21.072 66.1762 20.352 65.7122 19.68 65.1042C19.04 64.4962 18.448 63.7922 17.904 62.9922C17.392 62.1922 16.928 61.3122 16.512 60.3522C16.096 61.4722 15.6 62.5122 15.024 63.4722C14.48 64.4322 13.872 65.2642 13.2 65.9682C12.528 66.6722 11.792 67.2162 10.992 67.6002C10.192 67.9842 9.34399 68.1762 8.44799 68.1762C7.07199 68.1762 5.90399 67.8242 4.94399 67.1202C4.01599 66.4162 3.24799 65.4882 2.63999 64.3362C2.03199 63.2162 1.55199 61.9362 1.19999 60.4962C0.879991 59.0242 0.639991 57.5362 0.479991 56.0322C0.319991 54.4962 0.207991 53.0082 0.143991 51.5682C0.111991 50.0962 0.0799912 48.8002 0.0479912 47.6802C-0.0160088 45.6642 0.0159912 43.7602 0.143991 41.9682C0.303991 40.1442 0.479991 38.5122 0.671991 37.0722C0.863991 35.6002 1.05599 34.3362 1.24799 33.2802C1.43999 32.2242 1.56799 31.4402 1.63199 30.9282C1.66399 30.7362 1.85599 30.6082 2.20799 30.5442C2.59199 30.4802 2.92799 30.4482 3.21599 30.4482C3.43999 30.4482 3.63199 30.4802 3.79199 30.5442C3.95199 30.5762 4.03199 30.6722 4.03199 30.8322C4.03199 31.0242 3.95199 31.3602 3.79199 31.8402C3.63199 32.2882 3.39199 33.1522 3.07199 34.4322C2.94399 35.0082 2.79999 35.8402 2.63999 36.9282C2.51199 37.9842 2.38399 39.1842 2.25599 40.5282C2.15999 41.8722 2.07999 43.3122 2.01599 44.8482C1.95199 46.3522 1.91999 47.8242 1.91999 49.2642C1.91999 50.3842 1.96799 51.6162 2.06399 52.9602C2.15999 54.2722 2.31999 55.5842 2.54399 56.8962C2.76799 58.1762 3.07199 59.4242 3.45599 60.6402C3.83999 61.8562 4.30399 62.9282 4.84799 63.8562C5.42399 64.7842 6.09599 65.5202 6.86399 66.0642C7.63199 66.6402 8.52799 66.9282 9.55199 66.9282C10.32 66.9282 11.024 66.7362 11.664 66.3522C12.304 65.9682 12.896 65.4242 13.44 64.7202C13.984 64.0482 14.464 63.2482 14.88 62.3202C15.328 61.3922 15.728 60.3842 16.08 59.2962C15.344 57.2802 14.8 55.1362 14.448 52.8642C14.096 50.5922 13.92 48.4962 13.92 46.5762C13.92 45.1682 13.968 43.7762 14.064 42.4002C14.192 41.0242 14.368 39.7922 14.592 38.7042C14.816 37.6162 15.104 36.7362 15.456 36.0642C15.808 35.3922 16.224 35.0562 16.704 35.0562C17.088 35.0562 17.424 35.2962 17.712 35.7762C18.032 36.2562 18.288 36.9122 18.48 37.7442C18.704 38.5762 18.864 39.5682 18.96 40.7202C19.088 41.8402 19.152 43.0562 19.152 44.3682C19.152 46.4802 19.008 48.7042 18.72 51.0402C18.432 53.3442 17.984 55.6002 17.376 57.8082C17.792 58.9282 18.272 59.9682 18.816 60.9282C19.36 61.8562 19.968 62.6722 20.64 63.3762C21.344 64.0802 22.112 64.6242 22.944 65.0082C23.808 65.4242 24.752 65.6322 25.776 65.6322C27.184 65.6322 28.336 65.2802 29.232 64.5762C30.128 63.9042 30.832 62.9762 31.344 61.7922C31.856 60.5762 32.208 59.1842 32.4 57.6162C32.592 56.0162 32.688 54.3042 32.688 52.4802C32.688 50.8482 32.624 49.1682 32.496 47.4402C32.4 45.7122 32.288 44.0002 32.16 42.3042C32.032 40.5762 31.904 38.9122 31.776 37.3122C31.68 35.6802 31.632 34.1762 31.632 32.8002C31.632 31.8082 31.776 30.6562 32.064 29.3442C32.384 28.0322 32.8 26.8002 33.312 25.6482C33.856 24.4642 34.464 23.4722 35.136 22.6722C35.84 21.8402 36.576 21.4242 37.344 21.4242C37.568 21.4242 37.792 21.5362 38.016 21.7602C38.24 21.9522 38.352 22.1442 38.352 22.3362Z" fill="black"/>
<path d="M53.3396 54.2082C53.3396 53.7282 53.2596 53.3442 53.0996 53.0562C52.9396 52.7362 52.6836 52.5762 52.3316 52.5762C51.7876 52.5762 51.3716 52.8482 51.0836 53.3922C50.7956 53.9042 50.6676 54.5602 50.6996 55.3602C50.7956 57.0562 51.0996 58.4802 51.6116 59.6322C52.1556 58.8962 52.5716 58.0642 52.8596 57.1362C53.1796 56.2082 53.3396 55.2322 53.3396 54.2082ZM66.2996 54.1602C66.0756 54.6402 65.8356 55.1362 65.5796 55.6482C65.3236 56.1282 65.0356 56.6082 64.7156 57.0882C63.0836 59.5202 61.4356 61.3282 59.7716 62.5122C58.1076 63.6962 56.5556 64.2882 55.1156 64.2882C53.2916 64.2882 51.8996 63.4242 50.9396 61.6962C49.8196 62.8162 48.5556 63.6642 47.1476 64.2402C45.7716 64.8162 44.4116 65.1042 43.0676 65.1042C42.2676 65.1042 41.4996 64.9922 40.7636 64.7682C40.0596 64.5442 39.4516 64.2082 38.9396 63.7602C38.3956 63.2802 37.9636 62.6882 37.6436 61.9842C37.3236 61.2482 37.1636 60.4002 37.1636 59.4402C37.1636 58.2882 37.4356 57.1202 37.9796 55.9362C38.4916 54.7202 39.2116 53.6322 40.1396 52.6722C41.0996 51.6802 42.2196 50.8642 43.4996 50.2242C44.7796 49.5842 46.1716 49.2642 47.6756 49.2642C48.8916 49.2642 49.8356 49.4402 50.5076 49.7922C51.1796 50.1122 51.5156 50.4162 51.5156 50.7042C51.5156 50.8322 51.4516 50.9282 51.3236 50.9922C51.1956 51.0562 51.0836 51.0882 50.9876 51.0882C50.9556 51.0562 50.9236 51.0402 50.8916 51.0402H50.8436C50.4596 50.6882 50.0276 50.4162 49.5476 50.2242C49.0676 50.0002 48.3636 49.8882 47.4356 49.8882C46.1876 49.8882 45.0516 50.1602 44.0276 50.7042C43.0356 51.2162 42.1876 51.9042 41.4836 52.7682C40.7796 53.6002 40.2356 54.5282 39.8516 55.5522C39.4676 56.5762 39.2756 57.5842 39.2756 58.5762C39.2756 60.4962 39.7236 61.8882 40.6196 62.7522C41.5156 63.6162 42.6356 64.0482 43.9796 64.0482C45.0676 64.0482 46.2036 63.7762 47.3876 63.2322C48.5716 62.6882 49.6276 61.9202 50.5556 60.9282C50.0436 59.7762 49.7876 58.2722 49.7876 56.4162C49.7876 55.2002 50.0116 54.1442 50.4596 53.2482C50.9076 52.3522 51.5476 51.9042 52.3796 51.9042C53.5316 51.9042 54.1076 52.5762 54.1076 53.9202C54.1076 55.2642 53.9156 56.4802 53.5316 57.5682C53.1476 58.6242 52.6356 59.5842 51.9956 60.4482C52.8916 62.1122 54.1396 62.9442 55.7396 62.9442C56.9556 62.9442 58.2516 62.4322 59.6276 61.4082C61.0356 60.3842 62.4116 58.8962 63.7556 56.9442C64.0756 56.4642 64.3636 55.9682 64.6196 55.4562C64.8756 54.9442 65.1316 54.4322 65.3876 53.9202L66.2996 54.1602Z" fill="black"/>
<path d="M72.9667 32.7042C72.9667 30.8802 72.6627 29.4242 72.0547 28.3362C71.4787 27.2162 70.5027 26.6562 69.1267 26.6562C68.6467 26.6562 68.1987 26.8162 67.7827 27.1362C67.3987 27.4242 67.0627 27.8242 66.7747 28.3362C66.4867 28.8482 66.2627 29.4402 66.1027 30.1122C65.9427 30.7842 65.8627 31.5042 65.8627 32.2722C65.8627 34.3842 65.8787 36.3042 65.9107 38.0322C65.9427 39.7602 65.9747 41.3922 66.0067 42.9282C66.0707 44.4642 66.1347 45.9522 66.1987 47.3922C66.2627 48.8322 66.3267 50.3042 66.3907 51.8082C67.3187 50.5602 68.1827 49.1362 68.9827 47.5362C69.7827 45.9042 70.4707 44.2402 71.0467 42.5442C71.6547 40.8162 72.1187 39.1042 72.4387 37.4082C72.7907 35.7122 72.9667 34.1442 72.9667 32.7042ZM90.3427 54.1602C90.1187 54.6402 89.8787 55.1362 89.6227 55.6482C89.3987 56.1602 89.1107 56.6402 88.7587 57.0882C86.9987 59.5842 84.9987 61.5522 82.7587 62.9922C80.5187 64.4002 78.2947 65.1042 76.0867 65.1042C74.7107 65.1042 73.3987 64.7842 72.1507 64.1442C70.9027 63.5362 69.7987 62.5442 68.8387 61.1682C68.7107 61.0082 68.6467 60.8642 68.6467 60.7362C68.6467 60.4482 68.8387 60.3042 69.2227 60.3042C69.2547 60.3042 69.3667 60.3362 69.5587 60.4002C69.8147 60.4002 70.1027 60.4962 70.4227 60.6882C70.7747 60.8482 71.2707 60.9282 71.9107 60.9282C72.9027 60.9282 73.8307 60.7522 74.6947 60.4002C75.5587 60.0482 76.2947 59.6002 76.9027 59.0562C77.5427 58.4802 78.0387 57.8402 78.3907 57.1362C78.7427 56.4002 78.9187 55.6482 78.9187 54.8802C78.9187 53.9202 78.6627 53.0882 78.1507 52.3842C77.6707 51.6802 76.8387 51.3282 75.6547 51.3282C74.4387 51.3282 73.3187 51.7602 72.2947 52.6242C71.2707 53.4562 70.3427 54.4802 69.5107 55.6962C68.7107 56.8802 68.0227 58.1442 67.4467 59.4882C66.8707 60.8002 66.4387 61.9522 66.1507 62.9442C65.9907 63.4882 65.8467 63.8242 65.7187 63.9522C65.5907 64.0802 65.4467 64.1442 65.2867 64.1442C64.9347 64.1442 64.7747 63.8082 64.8067 63.1362C64.8067 62.8482 64.8227 62.4962 64.8547 62.0802C64.8867 61.6642 64.9187 61.2162 64.9507 60.7362C64.9507 60.2562 64.9667 59.7762 64.9987 59.2962C65.0307 58.7842 65.0467 58.3202 65.0467 57.9042C65.0467 56.4642 65.0147 54.8162 64.9507 52.9602C64.8867 51.0722 64.8067 49.1362 64.7107 47.1522C64.6147 45.1362 64.5347 43.1362 64.4707 41.1522C64.4067 39.1682 64.3747 37.3442 64.3747 35.6802C64.3747 34.3682 64.4707 33.1042 64.6627 31.8882C64.8547 30.6402 65.1587 29.5522 65.5747 28.6242C65.9907 27.6642 66.5187 26.9122 67.1587 26.3682C67.7987 25.7922 68.5507 25.5042 69.4147 25.5042C70.3107 25.5042 71.0627 25.6642 71.6707 25.9842C72.3107 26.2722 72.8227 26.7042 73.2067 27.2802C73.5907 27.8242 73.8627 28.4962 74.0227 29.2962C74.2147 30.0642 74.3107 30.9122 74.3107 31.8402C74.3107 33.4402 74.0867 35.2002 73.6387 37.1202C73.1907 39.0082 72.5987 40.9122 71.8627 42.8322C71.1267 44.7522 70.2787 46.6082 69.3187 48.4002C68.3907 50.1602 67.4307 51.6962 66.4387 53.0082C66.5027 53.9682 66.5347 54.9602 66.5347 55.9842C66.5667 57.0082 66.6147 58.0962 66.6787 59.2482C67.4787 57.5202 68.3587 56.0322 69.3187 54.7842C69.7347 54.2402 70.1987 53.7122 70.7107 53.2002C71.2547 52.6562 71.8147 52.1762 72.3907 51.7602C72.9987 51.3442 73.6387 51.0082 74.3107 50.7522C75.0147 50.4962 75.7507 50.3682 76.5187 50.3682C77.7347 50.3682 78.7907 50.6722 79.6867 51.2802C80.5827 51.8882 81.0307 52.8642 81.0307 54.2082C81.0307 55.4882 80.7107 56.5762 80.0707 57.4722C79.4627 58.3682 78.6947 59.1202 77.7667 59.7282C76.8387 60.3042 75.8467 60.7362 74.7907 61.0242C73.7347 61.3122 72.7747 61.4882 71.9107 61.5522C71.8467 61.5522 71.8147 61.5682 71.8147 61.6002C71.8147 61.6642 71.8627 61.7602 71.9587 61.8882C72.5987 62.6242 73.3187 63.1522 74.1187 63.4722C74.9187 63.7922 75.7507 63.9522 76.6147 63.9522C77.6707 63.9522 78.7427 63.7602 79.8307 63.3762C80.9187 62.9602 81.9587 62.4322 82.9507 61.7922C83.9427 61.1202 84.8547 60.3682 85.6867 59.5362C86.5507 58.6722 87.2547 57.8082 87.7987 56.9442C88.1187 56.4642 88.4067 55.9682 88.6627 55.4562C88.9187 54.9442 89.1747 54.4322 89.4307 53.9202L90.3427 54.1602Z" fill="black"/>
<path d="M97.1096 51.1842C97.1096 50.3202 96.8856 49.6162 96.4376 49.0722C96.0216 48.4962 95.3336 48.2082 94.3736 48.2082C93.8616 48.2082 93.3976 48.3682 92.9816 48.6882C92.5656 49.0082 92.2136 49.4402 91.9256 49.9842C91.6376 50.4962 91.4136 51.1042 91.2536 51.8082C91.0936 52.5122 91.0136 53.2482 91.0136 54.0162C91.0136 55.2322 91.1416 56.3202 91.3976 57.2802C91.6856 58.2082 92.0856 59.0242 92.5976 59.7282C93.2696 59.1842 93.8776 58.5602 94.4216 57.8562C94.9656 57.1522 95.4296 56.4162 95.8136 55.6482C96.2296 54.8802 96.5496 54.1122 96.7736 53.3442C96.9976 52.5762 97.1096 51.8562 97.1096 51.1842ZM109.254 54.1602C109.03 54.6402 108.79 55.1362 108.534 55.6482C108.31 56.1282 108.022 56.6082 107.67 57.0882C106.102 59.3282 104.31 61.0242 102.294 62.1762C100.31 63.2962 98.4056 63.8562 96.5816 63.8562C95.5576 63.8562 94.5976 63.6802 93.7016 63.3282C92.8376 62.9762 92.0856 62.4482 91.4456 61.7442C90.8056 61.0402 90.2936 60.1602 89.9096 59.1042C89.5256 58.0482 89.3336 56.8002 89.3336 55.3602C89.3336 54.4002 89.4776 53.4402 89.7656 52.4802C90.0536 51.5202 90.4376 50.6562 90.9176 49.8882C91.4296 49.1202 92.0056 48.4962 92.6456 48.0162C93.3176 47.5362 94.0216 47.2962 94.7576 47.2962C95.9416 47.2962 96.8056 47.6482 97.3496 48.3522C97.8936 49.0242 98.1656 49.8882 98.1656 50.9442C98.1656 52.3842 97.7176 53.9522 96.8216 55.6482C95.9576 57.3122 94.7096 58.8642 93.0776 60.3042C94.2936 61.6802 95.8616 62.3682 97.7816 62.3682C99.2216 62.3682 100.726 61.9362 102.294 61.0722C103.862 60.1762 105.334 58.8002 106.71 56.9442C107.062 56.4962 107.35 56.0162 107.574 55.5042C107.83 54.9602 108.086 54.4322 108.342 53.9202L109.254 54.1602Z" fill="black"/>
<path d="M150.839 42.0642C149.655 42.0642 148.519 42.1922 147.431 42.4482C146.375 42.7042 145.431 43.0082 144.599 43.3602C143.799 43.7122 143.143 44.0802 142.631 44.4642C142.151 44.8482 141.911 45.1842 141.911 45.4722C141.911 45.8562 142.359 46.0482 143.255 46.0482C144.791 46.0482 146.247 45.6802 147.623 44.9442C149.031 44.2082 150.295 43.2482 151.415 42.0642H150.839ZM164.807 49.2642C164.807 50.8322 164.359 52.5282 163.463 54.3522C162.599 56.1762 161.399 57.9842 159.863 59.7762C158.327 61.5682 156.503 63.2962 154.391 64.9602C152.279 66.6242 150.007 68.0962 147.575 69.3762C145.143 70.6562 142.583 71.6642 139.895 72.4002C137.207 73.1682 134.519 73.5522 131.831 73.5522C131.383 73.5522 130.887 73.5362 130.343 73.5042C129.831 73.4722 129.351 73.3922 128.903 73.2642C128.455 73.1682 128.071 72.9922 127.751 72.7362C127.431 72.5122 127.271 72.1922 127.271 71.7762C127.271 71.2002 127.559 70.6402 128.135 70.0962C128.711 69.5842 129.447 69.1042 130.343 68.6562C131.239 68.2082 132.215 67.8082 133.271 67.4562C134.327 67.1042 135.335 66.8002 136.295 66.5442C137.287 66.2882 138.151 66.0802 138.887 65.9202C139.623 65.7922 140.119 65.7282 140.375 65.7282C140.567 65.7282 140.711 65.7762 140.807 65.8722C140.903 65.9682 140.951 66.0642 140.951 66.1602C140.951 66.3202 140.871 66.4002 140.711 66.4002H140.087C139.255 66.4002 138.199 66.5602 136.919 66.8802C135.639 67.2002 134.391 67.6002 133.175 68.0802C131.959 68.5602 130.919 69.0882 130.055 69.6642C129.191 70.2722 128.759 70.8322 128.759 71.3442C128.759 71.6962 128.871 71.9682 129.095 72.1602C129.351 72.3842 129.655 72.5602 130.007 72.6882C130.359 72.8162 130.727 72.8962 131.111 72.9282C131.495 72.9922 131.831 73.0242 132.119 73.0242C134.391 73.0242 136.711 72.6402 139.079 71.8722C141.479 71.1042 143.799 70.0802 146.039 68.8002C148.311 67.5522 150.439 66.0962 152.423 64.4322C154.439 62.8002 156.199 61.1042 157.703 59.3442C159.207 57.5522 160.391 55.7762 161.255 54.0162C162.119 52.2242 162.551 50.5602 162.551 49.0242C162.551 47.1362 161.767 45.5682 160.199 44.3202C158.663 43.0402 156.119 42.3042 152.567 42.1122C151.127 43.4562 149.543 44.5442 147.815 45.3762C146.119 46.2082 144.391 46.6242 142.631 46.6242C141.383 46.6242 140.759 46.3202 140.759 45.7122C140.759 45.3282 141.015 44.8962 141.527 44.4162C142.071 43.9042 142.807 43.4242 143.735 42.9762C144.695 42.5282 145.831 42.1602 147.143 41.8722C148.455 41.5522 149.895 41.3922 151.463 41.3922H152.039C153.095 40.1442 153.943 38.7842 154.583 37.3122C155.223 35.8082 155.543 34.3362 155.543 32.8962C155.543 31.9362 155.367 31.0242 155.015 30.1602C154.695 29.2642 154.151 28.4962 153.383 27.8562C152.647 27.2162 151.671 26.7042 150.455 26.3202C149.271 25.9362 147.831 25.7442 146.135 25.7442C144.983 25.7442 143.383 25.9042 141.335 26.2242C139.319 26.5442 137.127 27.0402 134.759 27.7122C132.423 28.3522 130.039 29.1682 127.607 30.1602C125.175 31.1522 122.967 32.3042 120.983 33.6162C118.999 34.9282 117.383 36.4162 116.135 38.0802C114.887 39.7442 114.263 41.5842 114.263 43.6002C114.263 43.8562 114.215 44.0802 114.119 44.2722C114.023 44.4322 113.927 44.5122 113.831 44.5122C113.703 44.5122 113.607 44.3842 113.543 44.1282C113.447 43.8402 113.399 43.3762 113.399 42.7362C113.687 40.6562 114.535 38.7682 115.943 37.0722C117.351 35.3762 119.095 33.8722 121.175 32.5602C123.223 31.2162 125.479 30.0642 127.943 29.1042C130.407 28.1442 132.839 27.3602 135.239 26.7522C137.671 26.1122 139.927 25.6482 142.007 25.3602C144.119 25.0402 145.847 24.8802 147.191 24.8802C149.143 24.8802 150.791 25.0722 152.135 25.4562C153.511 25.8082 154.631 26.3042 155.495 26.9442C156.359 27.5522 156.983 28.2882 157.367 29.1522C157.751 30.0162 157.943 30.9282 157.943 31.8882C157.943 33.4562 157.511 35.0882 156.647 36.7842C155.815 38.4482 154.679 40.0002 153.239 41.4402C155.287 41.5362 157.047 41.8082 158.519 42.2562C159.991 42.6722 161.191 43.2322 162.119 43.9362C163.047 44.6082 163.719 45.4082 164.135 46.3362C164.583 47.2322 164.807 48.2082 164.807 49.2642ZM139.367 61.8882C139.367 62.3362 139.335 62.6562 139.271 62.8482C139.207 63.0402 139.031 63.1362 138.743 63.1362C138.103 63.2002 137.783 62.5602 137.783 61.2162C137.751 56.8002 137.703 52.7682 137.639 49.1202C137.607 45.4722 137.559 42.3202 137.495 39.6642C137.463 36.9762 137.431 34.8482 137.399 33.2802C137.367 31.7122 137.351 30.8162 137.351 30.5922C137.351 30.3362 137.431 30.1602 137.591 30.0642C137.751 29.9682 137.943 29.8882 138.167 29.8242C138.423 29.8242 138.615 29.9042 138.743 30.0642C138.903 30.2242 138.983 30.4162 138.983 30.6402C138.983 33.2002 138.999 35.8402 139.031 38.5602C139.063 41.2482 139.095 43.9362 139.127 46.6242C139.191 49.3122 139.239 51.9522 139.271 54.5442C139.335 57.1362 139.367 59.5842 139.367 61.8882Z" fill="black"/>
<path d="M183.465 54.2082C183.465 53.7282 183.385 53.3442 183.225 53.0562C183.065 52.7362 182.809 52.5762 182.457 52.5762C181.913 52.5762 181.497 52.8482 181.209 53.3922C180.921 53.9042 180.793 54.5602 180.825 55.3602C180.921 57.0562 181.225 58.4802 181.737 59.6322C182.281 58.8962 182.697 58.0642 182.985 57.1362C183.305 56.2082 183.465 55.2322 183.465 54.2082ZM196.425 54.1602C196.201 54.6402 195.961 55.1362 195.705 55.6482C195.449 56.1282 195.161 56.6082 194.841 57.0882C193.209 59.5202 191.561 61.3282 189.897 62.5122C188.233 63.6962 186.681 64.2882 185.241 64.2882C183.417 64.2882 182.025 63.4242 181.065 61.6962C179.945 62.8162 178.681 63.6642 177.273 64.2402C175.897 64.8162 174.537 65.1042 173.193 65.1042C172.393 65.1042 171.625 64.9922 170.889 64.7682C170.185 64.5442 169.577 64.2082 169.065 63.7602C168.521 63.2802 168.089 62.6882 167.769 61.9842C167.449 61.2482 167.289 60.4002 167.289 59.4402C167.289 58.2882 167.561 57.1202 168.105 55.9362C168.617 54.7202 169.337 53.6322 170.265 52.6722C171.225 51.6802 172.345 50.8642 173.625 50.2242C174.905 49.5842 176.297 49.2642 177.801 49.2642C179.017 49.2642 179.961 49.4402 180.633 49.7922C181.305 50.1122 181.641 50.4162 181.641 50.7042C181.641 50.8322 181.577 50.9282 181.449 50.9922C181.321 51.0562 181.209 51.0882 181.113 51.0882C181.081 51.0562 181.049 51.0402 181.017 51.0402H180.969C180.585 50.6882 180.153 50.4162 179.673 50.2242C179.193 50.0002 178.489 49.8882 177.561 49.8882C176.313 49.8882 175.177 50.1602 174.153 50.7042C173.161 51.2162 172.313 51.9042 171.609 52.7682C170.905 53.6002 170.361 54.5282 169.977 55.5522C169.593 56.5762 169.401 57.5842 169.401 58.5762C169.401 60.4962 169.849 61.8882 170.745 62.7522C171.641 63.6162 172.761 64.0482 174.105 64.0482C175.193 64.0482 176.329 63.7762 177.513 63.2322C178.697 62.6882 179.753 61.9202 180.681 60.9282C180.169 59.7762 179.913 58.2722 179.913 56.4162C179.913 55.2002 180.137 54.1442 180.585 53.2482C181.033 52.3522 181.673 51.9042 182.505 51.9042C183.657 51.9042 184.233 52.5762 184.233 53.9202C184.233 55.2642 184.041 56.4802 183.657 57.5682C183.273 58.6242 182.761 59.5842 182.121 60.4482C183.017 62.1122 184.265 62.9442 185.865 62.9442C187.081 62.9442 188.377 62.4322 189.753 61.4082C191.161 60.3842 192.537 58.8962 193.881 56.9442C194.201 56.4642 194.489 55.9682 194.745 55.4562C195.001 54.9442 195.257 54.4322 195.513 53.9202L196.425 54.1602Z" fill="black"/>
<path d="M203.092 32.7042C203.092 30.8802 202.788 29.4242 202.18 28.3362C201.604 27.2162 200.628 26.6562 199.252 26.6562C198.772 26.6562 198.324 26.8162 197.908 27.1362C197.524 27.4242 197.188 27.8242 196.9 28.3362C196.612 28.8482 196.388 29.4402 196.228 30.1122C196.068 30.7842 195.988 31.5042 195.988 32.2722C195.988 34.3842 196.004 36.3042 196.036 38.0322C196.068 39.7602 196.1 41.3922 196.132 42.9282C196.196 44.4642 196.26 45.9522 196.324 47.3922C196.388 48.8322 196.452 50.3042 196.516 51.8082C197.444 50.5602 198.308 49.1362 199.108 47.5362C199.908 45.9042 200.596 44.2402 201.172 42.5442C201.78 40.8162 202.244 39.1042 202.564 37.4082C202.916 35.7122 203.092 34.1442 203.092 32.7042ZM220.468 54.1602C220.244 54.6402 220.004 55.1362 219.748 55.6482C219.524 56.1602 219.236 56.6402 218.884 57.0882C217.124 59.5842 215.124 61.5522 212.884 62.9922C210.644 64.4002 208.42 65.1042 206.212 65.1042C204.836 65.1042 203.524 64.7842 202.276 64.1442C201.028 63.5362 199.924 62.5442 198.964 61.1682C198.836 61.0082 198.772 60.8642 198.772 60.7362C198.772 60.4482 198.964 60.3042 199.348 60.3042C199.38 60.3042 199.492 60.3362 199.684 60.4002C199.94 60.4002 200.228 60.4962 200.548 60.6882C200.9 60.8482 201.396 60.9282 202.036 60.9282C203.028 60.9282 203.956 60.7522 204.82 60.4002C205.684 60.0482 206.42 59.6002 207.028 59.0562C207.668 58.4802 208.164 57.8402 208.516 57.1362C208.868 56.4002 209.044 55.6482 209.044 54.8802C209.044 53.9202 208.788 53.0882 208.276 52.3842C207.796 51.6802 206.964 51.3282 205.78 51.3282C204.564 51.3282 203.444 51.7602 202.42 52.6242C201.396 53.4562 200.468 54.4802 199.636 55.6962C198.836 56.8802 198.148 58.1442 197.572 59.4882C196.996 60.8002 196.564 61.9522 196.276 62.9442C196.116 63.4882 195.972 63.8242 195.844 63.9522C195.716 64.0802 195.572 64.1442 195.412 64.1442C195.06 64.1442 194.9 63.8082 194.932 63.1362C194.932 62.8482 194.948 62.4962 194.98 62.0802C195.012 61.6642 195.044 61.2162 195.076 60.7362C195.076 60.2562 195.092 59.7762 195.124 59.2962C195.156 58.7842 195.172 58.3202 195.172 57.9042C195.172 56.4642 195.14 54.8162 195.076 52.9602C195.012 51.0722 194.932 49.1362 194.836 47.1522C194.74 45.1362 194.66 43.1362 194.596 41.1522C194.532 39.1682 194.5 37.3442 194.5 35.6802C194.5 34.3682 194.596 33.1042 194.788 31.8882C194.98 30.6402 195.284 29.5522 195.7 28.6242C196.116 27.6642 196.644 26.9122 197.284 26.3682C197.924 25.7922 198.676 25.5042 199.54 25.5042C200.436 25.5042 201.188 25.6642 201.796 25.9842C202.436 26.2722 202.948 26.7042 203.332 27.2802C203.716 27.8242 203.988 28.4962 204.148 29.2962C204.34 30.0642 204.436 30.9122 204.436 31.8402C204.436 33.4402 204.212 35.2002 203.764 37.1202C203.316 39.0082 202.724 40.9122 201.988 42.8322C201.252 44.7522 200.404 46.6082 199.444 48.4002C198.516 50.1602 197.556 51.6962 196.564 53.0082C196.628 53.9682 196.66 54.9602 196.66 55.9842C196.692 57.0082 196.74 58.0962 196.804 59.2482C197.604 57.5202 198.484 56.0322 199.444 54.7842C199.86 54.2402 200.324 53.7122 200.836 53.2002C201.38 52.6562 201.94 52.1762 202.516 51.7602C203.124 51.3442 203.764 51.0082 204.436 50.7522C205.14 50.4962 205.876 50.3682 206.644 50.3682C207.86 50.3682 208.916 50.6722 209.812 51.2802C210.708 51.8882 211.156 52.8642 211.156 54.2082C211.156 55.4882 210.836 56.5762 210.196 57.4722C209.588 58.3682 208.82 59.1202 207.892 59.7282C206.964 60.3042 205.972 60.7362 204.916 61.0242C203.86 61.3122 202.9 61.4882 202.036 61.5522C201.972 61.5522 201.94 61.5682 201.94 61.6002C201.94 61.6642 201.988 61.7602 202.084 61.8882C202.724 62.6242 203.444 63.1522 204.244 63.4722C205.044 63.7922 205.876 63.9522 206.74 63.9522C207.796 63.9522 208.868 63.7602 209.956 63.3762C211.044 62.9602 212.084 62.4322 213.076 61.7922C214.068 61.1202 214.98 60.3682 215.812 59.5362C216.676 58.6722 217.38 57.8082 217.924 56.9442C218.244 56.4642 218.532 55.9682 218.788 55.4562C219.044 54.9442 219.3 54.4322 219.556 53.9202L220.468 54.1602Z" fill="black"/>
<path d="M227.235 51.1842C227.235 50.3202 227.011 49.6162 226.563 49.0722C226.147 48.4962 225.459 48.2082 224.499 48.2082C223.987 48.2082 223.523 48.3682 223.107 48.6882C222.691 49.0082 222.339 49.4402 222.051 49.9842C221.763 50.4962 221.539 51.1042 221.379 51.8082C221.219 52.5122 221.139 53.2482 221.139 54.0162C221.139 55.2322 221.267 56.3202 221.523 57.2802C221.811 58.2082 222.211 59.0242 222.723 59.7282C223.395 59.1842 224.003 58.5602 224.547 57.8562C225.091 57.1522 225.555 56.4162 225.939 55.6482C226.355 54.8802 226.675 54.1122 226.899 53.3442C227.123 52.5762 227.235 51.8562 227.235 51.1842ZM239.379 54.1602C239.155 54.6402 238.915 55.1362 238.659 55.6482C238.435 56.1282 238.147 56.6082 237.795 57.0882C236.227 59.3282 234.435 61.0242 232.419 62.1762C230.435 63.2962 228.531 63.8562 226.707 63.8562C225.683 63.8562 224.723 63.6802 223.827 63.3282C222.963 62.9762 222.211 62.4482 221.571 61.7442C220.931 61.0402 220.419 60.1602 220.035 59.1042C219.651 58.0482 219.459 56.8002 219.459 55.3602C219.459 54.4002 219.603 53.4402 219.891 52.4802C220.179 51.5202 220.563 50.6562 221.043 49.8882C221.555 49.1202 222.131 48.4962 222.771 48.0162C223.443 47.5362 224.147 47.2962 224.883 47.2962C226.067 47.2962 226.931 47.6482 227.475 48.3522C228.019 49.0242 228.291 49.8882 228.291 50.9442C228.291 52.3842 227.843 53.9522 226.947 55.6482C226.083 57.3122 224.835 58.8642 223.203 60.3042C224.419 61.6802 225.987 62.3682 227.907 62.3682C229.347 62.3682 230.851 61.9362 232.419 61.0722C233.987 60.1762 235.459 58.8002 236.835 56.9442C237.187 56.4962 237.475 56.0162 237.699 55.5042C237.955 54.9602 238.211 54.4322 238.467 53.9202L239.379 54.1602Z" fill="black"/>
</svg>
